<svg xmlns="http://www.w3.org/2000/svg" xmlns:xlink="http://www.w3.org/1999/xlink" version="1.1" x="0px" y="0px" viewBox="-346 256 100 125" enable-background="new -346 256 100 100" xml:space="preserve"><g><path d="M-295.836,280.596c1.053,0,2.169-0.025,3.186,0.108l0.929-6.251c-1.431-0.207-2.883-0.352-4.372-0.352   c-5.838,0-11.471,1.874-16.237,4.884l3.619,5.429C-305.004,282.008-300.588,280.596-295.836,280.596z"/><path d="M-269.498,320.258c2.364-4.937,3.719-10.57,3.719-15.836c0-5.999-1.746-11.587-4.752-16.292l-5.295,3.306   c1.673,2.53,2.765,5.334,3.304,8.374l-15.049-1.737l2.323-13.344l-8.123,8.702l-8.703-9.862l3.481,14.504l-13.344-5.803   l9.283,9.284l-12.764,4.64h13.924l-11.196,14.792c-4.24-4.283-6.859-10.173-6.859-16.677c0-6.625,2.723-12.609,7.104-16.911   l-4.838-4.568c-3.931,3.703-6.787,8.245-7.882,12.979c-0.586,2.528-1.248,9.135-1.248,9.135l-8.223,17.297   c-0.126,0.283-0.187,0.612-0.187,0.946c0,1.349,1.086,2.441,2.439,2.441h5.97v7.121c0,9.124,5.345,11.963,11.948,11.963h4.053   v11.157h33.042v-25.308c1.859-1.464,3.538-3.307,5.011-5.395l-5.62-5.288c-4.347,4.979-10.726,8.142-17.856,8.142   c-6.163,0-11.777-2.352-15.993-6.207l16.718-12.139v15.662l5.801-16.822l11.602,5.222l-6.382-8.702l11.572-5.208   c0.253,1.443,0.396,2.934,0.396,4.481c0,4.51-1.283,8.707-3.467,12.295L-269.498,320.258z"/><polygon points="-321.543,280.201 -328.22,274.146 -326.7,272.47 -320.023,278.526 -321.543,280.201  "/><polygon points="-284.319,271.181 -286.479,270.502 -284.087,262.887 -281.929,263.564 -284.319,271.181  "/><polygon points="-265.835,286.469 -266.965,284.508 -252.606,276.242 -251.478,278.203 -265.835,286.469  "/><polygon points="-261.832,329.053 -269.229,323.83 -267.924,321.983 -260.526,327.205 -261.832,329.053  "/><polygon points="-316.07,277.419 -327.817,260.016 -325.941,258.75 -314.194,276.154 -316.07,277.419  "/><polygon points="-310.096,272.842 -314.448,261.53 -312.336,260.717 -307.984,272.03 -310.096,272.842  "/><polygon points="-269.546,282.4 -271.087,280.745 -264.561,274.655 -263.019,276.309 -269.546,282.4  "/><polygon points="-290.313,270.832 -292.559,270.559 -290.817,256.201 -288.572,256.473 -290.313,270.832  "/><polygon points="-275.912,276.562 -277.773,275.273 -269.94,263.961 -268.081,265.248 -275.912,276.562  "/><polygon points="-253.559,320.354 -264.002,316.874 -263.285,314.728 -252.843,318.21 -253.559,320.354  "/><path d="M-278.263,288.463l4.803-4.148c-3.601-4.057-8.249-7.164-13.555-8.826l-1.867,5.796   C-284.438,282.494-281.259,285.147-278.263,288.463z"/><polygon points="-249.275,305.462 -261.827,305.462 -261.827,303.2 -249.275,303.2 -249.275,305.462  "/></g><text x="-346" y="371" fill="#000000" font-size="5px" font-weight="bold" font-family="'Helvetica Neue', Helvetica, Arial-Unicode, Arial, Sans-serif">Created by Luis Prado</text><text x="-346" y="376" fill="#000000" font-size="5px" font-weight="bold" font-family="'Helvetica Neue', Helvetica, Arial-Unicode, Arial, Sans-serif">from the Noun Project</text></svg>